<svg id="Capa_1" enable-background="new 0 0 512 512" height="512" viewBox="0 0 512 512" width="512" xmlns="http://www.w3.org/2000/svg"><g><path d="m141.842 343.308 13.041-54.159 14.972 50.976c.938 3.193 3.868 5.387 7.196 5.387s6.258-2.193 7.196-5.387l14.972-50.976 13.041 54.159c.828 3.438 3.899 5.746 7.286 5.746.581 0 1.172-.068 1.762-.21 4.027-.97 6.506-5.021 5.536-9.048l-19.615-81.46c-.796-3.303-3.711-5.658-7.106-5.742-3.411-.057-6.425 2.125-7.382 5.385l-15.689 53.418-15.688-53.418c-.957-3.26-4.02-5.442-7.382-5.385-3.396.084-6.311 2.439-7.106 5.742l-19.616 81.46c-.97 4.027 1.509 8.078 5.536 9.048 4.025.966 8.075-1.511 9.046-5.536z"/><path d="m383.175 267.592c4.143 0 7.5-3.357 7.5-7.5s-3.357-7.5-7.5-7.5h-31.875c-4.143 0-7.5 3.357-7.5 7.5v81.46c0 4.143 3.357 7.5 7.5 7.5h31.875c4.143 0 7.5-3.357 7.5-7.5s-3.357-7.5-7.5-7.5h-24.375v-25.729h22.604c4.143 0 7.5-3.357 7.5-7.5s-3.357-7.5-7.5-7.5h-22.604v-25.73h24.375z"/><path d="m50.277 252.592c-4.143 0-7.5 3.357-7.5 7.5v81.46c0 4.143 3.357 7.5 7.5 7.5h29.729c4.143 0 7.5-3.357 7.5-7.5s-3.357-7.5-7.5-7.5h-22.229v-73.96c0-4.143-3.357-7.5-7.5-7.5z"/><path d="m469.223 302.315v-2.987c0-25.771-20.966-46.736-46.736-46.736h-11.541c-4.143 0-7.5 3.357-7.5 7.5v81.46c0 4.143 3.357 7.5 7.5 7.5h11.541c25.77 0 46.736-20.966 46.736-46.737zm-15 0c0 17.499-14.237 31.736-31.736 31.736h-4.041v-66.46h4.041c17.499 0 31.736 14.237 31.736 31.736z"/><path d="m298.75 349.052c4.143 0 7.5-3.357 7.5-7.5v-73.96h18.279c4.143 0 7.5-3.357 7.5-7.5s-3.357-7.5-7.5-7.5h-51.558c-4.143 0-7.5 3.357-7.5 7.5s3.357 7.5 7.5 7.5h18.278v73.96c.001 4.142 3.358 7.5 7.501 7.5z"/><path d="m115.792 341.552v-81.46c0-4.143-3.357-7.5-7.5-7.5s-7.5 3.357-7.5 7.5v81.46c0 4.143 3.357 7.5 7.5 7.5s7.5-3.358 7.5-7.5z"/><path d="m255.778 341.552v-81.46c0-4.143-3.357-7.5-7.5-7.5s-7.5 3.357-7.5 7.5v81.46c0 4.143 3.357 7.5 7.5 7.5s7.5-3.358 7.5-7.5z"/><path d="m62.614 215.818c-1.981 4.508-1.555 9.665 1.143 13.796 2.708 4.149 7.28 6.626 12.23 6.626h360.025c4.95 0 9.522-2.477 12.229-6.625 2.697-4.132 3.124-9.289 1.143-13.797-11.466-26.081-27.824-49.018-47.711-67.935l15.353-21.928c2.604-3.718 3.604-8.227 2.815-12.696-.787-4.469-3.269-8.364-6.986-10.968l-23.921-16.749c-7.673-5.374-18.289-3.503-23.662 4.171l-.001.001-15.37 21.95c-19.434-9.645-40.426-16.341-62.31-19.646v-28.707h2.885c9.866 0 17.893-8.026 17.893-17.893v-27.526c0-9.866-8.026-17.892-17.892-17.892h-16.977c-4.143 0-7.5 3.357-7.5 7.5s3.357 7.5 7.5 7.5h16.977c1.595 0 2.893 1.297 2.893 2.892v27.526c0 1.595-1.298 2.893-2.893 2.893-6.598 0-61.101 0-68.953 0-1.595 0-2.893-1.298-2.893-2.893v-27.526c0-1.595 1.298-2.892 2.893-2.892h16.976c4.143 0 7.5-3.357 7.5-7.5s-3.357-7.5-7.5-7.5h-16.977c-9.866 0-17.893 8.026-17.893 17.892v27.526c0 9.866 8.026 17.893 17.893 17.893h2.885v28.707c-21.884 3.305-42.876 10.002-62.31 19.646l-15.37-21.95-.001-.001c-5.373-7.671-15.986-9.546-23.662-4.171l-23.922 16.75c-3.717 2.603-6.198 6.498-6.985 10.967-.789 4.47.211 8.979 2.814 12.695l15.354 21.929c-19.888 18.918-36.245 41.854-47.712 67.935zm56.483 5.422c8.034-13.76 18.057-26.073 29.578-36.656l5.213 6.212c1.483 1.768 3.608 2.679 5.749 2.679 1.701 0 3.412-.576 4.817-1.755 3.173-2.663 3.587-7.394.924-10.566l-5.196-6.192c10.679-8.105 22.354-14.854 34.725-20.064l2.769 7.608c1.108 3.046 3.984 4.938 7.049 4.938.851 0 1.718-.146 2.563-.454 3.893-1.417 5.899-5.721 4.483-9.612l-2.781-7.641c12.699-3.989 25.965-6.393 39.509-7.046v8.21c0 4.143 3.357 7.5 7.5 7.5s7.5-3.357 7.5-7.5v-8.21c13.544.654 26.811 3.057 39.508 7.046l-2.781 7.64c-1.417 3.893.59 8.196 4.482 9.613.847.308 1.713.454 2.564.454 3.063 0 5.94-1.892 7.049-4.937l2.77-7.609c12.37 5.209 24.046 11.959 34.725 20.064l-5.196 6.192c-2.663 3.173-2.249 7.903.924 10.566 1.405 1.18 3.116 1.755 4.817 1.755 2.14 0 4.266-.911 5.749-2.679l5.213-6.212c11.521 10.583 21.543 22.896 29.578 36.656zm258.462-122.923c.629-.897 1.874-1.116 2.772-.488l23.92 16.748c.559.392.754.916.819 1.286s.061.929-.33 1.487l-14.337 20.476c-4.294-3.537-8.718-6.902-13.216-10.052s-9.173-6.155-13.966-8.981zm-138.151-35.006h33.184v26.986c-8.699-.669-17.122-.821-25.269-.47-2.763.113-5.551.288-7.915.47zm-132.149 54.039c-.39-.558-.395-1.116-.329-1.486s.261-.895.818-1.285l23.921-16.749c.347-.243.745-.359 1.139-.359.628 0 1.247.296 1.634.848l14.337 20.476c-4.793 2.826-9.468 5.832-13.966 8.981s-8.922 6.515-13.216 10.052zm148.741-12.706c78.41 0 148.271 46.481 179.381 116.597h-25.379c-29.072-56.173-87.478-93.752-154.001-93.752-33.215 0-65.491 9.425-93.339 27.255-25.77 16.499-46.653 39.428-60.663 66.497h-25.38c31.449-70.881 101.819-116.597 179.381-116.597z"/><path d="m394.53 450.37c2.927 2.935 7.676 2.939 10.606.015 18.748-18.699 33.636-40.42 44.249-64.559 1.981-4.508 1.555-9.666-1.143-13.797-2.708-4.149-7.28-6.626-12.23-6.626-12.019 0-343.414 0-360.025 0-4.95 0-9.521 2.477-12.229 6.625-2.697 4.132-3.124 9.29-1.143 13.798 33.698 76.648 109.606 126.174 193.385 126.174 43.745 0 85.704-13.239 121.341-38.286 3.389-2.382 4.205-7.06 1.823-10.448-2.381-3.388-7.058-4.206-10.448-1.823-33.098 23.261-72.074 35.557-112.716 35.557-77.608 0-147.943-45.742-179.382-116.597h25.38c29.074 56.176 87.478 93.752 154.001 93.752 33.215 0 65.491-9.424 93.339-27.254 25.769-16.499 46.653-39.428 60.663-66.498h25.381c-9.84 22.176-23.578 42.146-40.838 59.36-2.933 2.926-2.939 7.675-.014 10.607zm-31.205-33.311-5.213-6.212c-2.662-3.172-7.394-3.586-10.566-.924s-3.587 7.393-.924 10.566l5.196 6.192c-10.679 8.105-22.354 14.854-34.725 20.064l-2.77-7.609c-1.417-3.893-5.722-5.896-9.613-4.482-3.893 1.417-5.899 5.721-4.482 9.613l2.781 7.64c-12.698 3.989-25.964 6.393-39.508 7.046v-8.209c0-4.143-3.357-7.5-7.5-7.5s-7.5 3.357-7.5 7.5v8.209c-13.544-.654-26.811-3.057-39.509-7.046l2.78-7.641c1.416-3.893-.591-8.196-4.483-9.612-3.894-1.414-8.196.591-9.612 4.483l-2.769 7.609c-12.37-5.21-24.046-11.959-34.725-20.064l5.196-6.192c2.663-3.174 2.249-7.904-.924-10.566-3.174-2.664-7.904-2.248-10.566.924l-5.213 6.213c-11.521-10.583-21.543-22.896-29.578-36.656h273.807c-8.036 13.758-18.058 26.072-29.58 36.654z"/></g></svg>